<?xml version="1.0" encoding="UTF-8"?>
<svg version="1.1" xmlns="http://www.w3.org/2000/svg" width="864" height="433">
<path d="M0 0 C57.56724684 0 57.56724684 0 68.09375 9.0390625 C74.93022097 16.07166173 76.58944052 24.3886972 77 34 C76.36300578 44.93290073 73.06867052 52.69382589 65.171875 60.234375 C61.98950726 62.82147971 58.76253501 64.387485 55 66 C55.54527344 66.59425781 56.09054687 67.18851562 56.65234375 67.80078125 C61.47022802 73.0963361 66.09695627 78.49891616 70.6015625 84.0625 C73.72286544 87.88533356 76.91135326 91.64866619 80.10693359 95.40942383 C83.09236082 98.92309319 86.04794589 102.45753507 89 106 C89.33 71.02 89.66 36.04 90 0 C150.72477064 0 150.72477064 0 161 10 C168.05066342 17.869044 169.88603864 25.54087987 170 36 C169.16038203 46.79508816 166.23598818 54.66098593 158.35546875 62.171875 C151.62576919 67.39492541 143.81230035 70.14261862 135.359375 70.09765625 C134.39483398 70.09515869 133.43029297 70.09266113 132.43652344 70.09008789 C130.61169434 70.07643188 130.61169434 70.07643188 128.75 70.0625 C124.8725 70.041875 120.995 70.02125 117 70 C117 83.53 117 97.06 117 111 C109.54444405 111.38005037 102.12458248 111.73954645 94.66772461 111.9315033 C91.1954251 112.02591285 87.7312651 112.15141106 84.26367188 112.35791016 C62.02261721 113.64797622 62.02261721 113.64797622 55.40072632 109.28897095 C51.08608218 105.17619876 48.0729637 100.46387575 45.26322937 95.24104309 C43.36310375 91.87010866 40.99385062 88.93517554 38.5625 85.9375 C37.84191406 84.99777344 37.12132812 84.05804688 36.37890625 83.08984375 C33.26739953 79.04846146 30.13135262 75.0260248 27 71 C26.67 84.2 26.34 97.4 26 111 C17.42 111 8.84 111 0 111 C0 74.37 0 37.74 0 0 Z M26 21 C26 30.24 26 39.48 26 49 C36.93986649 49.43255882 36.93986649 49.43255882 45.875 44.5625 C48.95749293 40.84537617 49.30832853 37.83658761 49.203125 33.05859375 C48.87142091 29.69690039 47.98743155 27.73271837 46 25 C39.73383595 19.94309568 34.28048617 21 26 21 Z M117 21 C117 30.24 117 39.48 117 49 C129.76591605 49.39064933 129.76591605 49.39064933 139.6484375 43.55078125 C142.35284573 40.44774638 142.28358134 36.95854133 142.2109375 32.9921875 C141.89126999 29.9731055 140.93507312 28.32208775 139 26 C131.43350714 20.20438845 127.20895799 21 117 21 Z " fill="#E4E2DD" transform="translate(386,71)"/>
<path d="M0 0 C8.91 0 17.82 0 27 0 C27 66.33 27 132.66 27 201 C92.67 201 158.34 201 226 201 C226 210.24 226 219.48 226 229 C151.42 229 76.84 229 0 229 C0 153.43 0 77.86 0 0 Z " fill="#E4E2DD" transform="translate(0,203)"/>
<path d="M0 0 C74.58 0 149.16 0 226 0 C226 75.57 226 151.14 226 229 C217.09 229 208.18 229 199 229 C199 162.67 199 96.34 199 28 C133.33 28 67.66 28 0 28 C0 18.76 0 9.52 0 0 Z " fill="#E4E2DD" transform="translate(638,0)"/>
<path d="M0 0 C8.25 0 16.5 0 25 0 C32.11409818 16.59956242 38.96315041 33.27729185 45.63671875 50.05737305 C49.32217883 59.32064409 53.03651203 68.57080335 56.8046875 77.80078125 C57.19902985 78.76821259 57.59337219 79.73564392 57.99966431 80.73239136 C60.31930624 86.42335207 60.31930624 86.42335207 62.64923096 92.11010742 C63.71858302 94.71351389 64.78172419 97.31937941 65.84375 99.92578125 C66.16479706 100.70198318 66.48584412 101.47818512 66.81661987 102.27790833 C68.0553211 105.33081165 69 107.67238193 69 111 C59.76 111 50.52 111 41 111 C38.36 104.07 35.72 97.14 33 90 C12.705 89.505 12.705 89.505 -8 89 C-8.99 92.3 -9.98 95.6 -11 99 C-13.475 104.94 -13.475 104.94 -16 111 C-25.24 111 -34.48 111 -44 111 C-41.93704683 104.12348942 -39.77599399 97.64872493 -37.03515625 91.0625 C-36.64930359 90.12362442 -36.26345093 89.18474884 -35.86590576 88.21742249 C-35.03460603 86.19550147 -34.2012843 84.1744108 -33.36611938 82.15408325 C-31.12452992 76.73059855 -28.89841712 71.30076958 -26.671875 65.87109375 C-26.2099324 64.7453746 -25.74798981 63.61965546 -25.27204895 62.45982361 C-19.14381232 47.5034202 -13.16871165 32.48566683 -7.18579102 17.47070312 C-6.57263031 15.93294472 -6.57263031 15.93294472 -5.94708252 14.36412048 C-5.18108789 12.44257294 -4.41594587 10.52068522 -3.65179443 8.59840393 C-3.3152887 7.75390182 -2.97878296 6.90939972 -2.63208008 6.03930664 C-2.19295036 4.93529259 -2.19295036 4.93529259 -1.74494934 3.80897522 C-1 2 -1 2 0 0 Z M12 36 C10.4313281 40.11093684 8.86480262 44.22268296 7.30029297 48.33520508 C6.76735956 49.7351714 6.23383215 51.13491174 5.69970703 52.53442383 C4.93367065 54.54189394 4.16974898 56.55015746 3.40625 58.55859375 C2.71499023 60.37315063 2.71499023 60.37315063 2.00976562 62.22436523 C0.9430207 64.6643569 0.9430207 64.6643569 1 66 C8.59 66 16.18 66 24 66 C21.7098277 58.1939916 21.7098277 58.1939916 18.95703125 50.6484375 C18.60576172 49.77832031 18.25449219 48.90820312 17.89257812 48.01171875 C17.35793945 46.70654297 17.35793945 46.70654297 16.8125 45.375 C16.44447266 44.46621094 16.07644531 43.55742187 15.69726562 42.62109375 C14.80216521 40.41240441 13.9030465 38.20544952 13 36 C12.67 36 12.34 36 12 36 Z " fill="#E4E2DD" transform="translate(162,237)"/>
<path d="M0 0 C2.97488407 1.74893941 4.92585344 3.50347686 7.06640625 6.21484375 C7.06640625 6.87484375 7.06640625 7.53484375 7.06640625 8.21484375 C7.87464844 7.58835937 8.68289063 6.961875 9.515625 6.31640625 C10.59482262 5.49058546 11.6742626 4.66508133 12.75390625 3.83984375 C13.28435547 3.42734375 13.81480469 3.01484375 14.36132812 2.58984375 C22.23109464 -3.39697249 29.49996834 -3.58569499 39.06640625 -2.78515625 C45.08092379 -1.2729347 51.23959174 2.25783014 55.06640625 7.21484375 C58.30273804 14.0916101 58.46362303 20.06255959 58.359375 27.58984375 C58.35513016 28.75491455 58.35088531 29.91998535 58.34651184 31.12036133 C58.32980275 34.8187634 58.29216386 38.51660809 58.25390625 42.21484375 C58.23884942 44.73176293 58.22516277 47.2486907 58.21289062 49.765625 C58.18248461 55.91574884 58.12374551 62.06467695 58.06640625 68.21484375 C50.14640625 68.21484375 42.22640625 68.21484375 34.06640625 68.21484375 C34.02902344 65.50394531 33.99164062 62.79304688 33.953125 60 C33.90679696 57.348799 33.85560452 54.69773291 33.80395508 52.04663086 C33.77088194 50.21663747 33.74279626 48.38654638 33.7199707 46.55639648 C33.68609818 43.91217762 33.63376984 41.26883996 33.578125 38.625 C33.57173508 37.81837418 33.56534515 37.01174835 33.5587616 36.18067932 C33.41701237 30.59404354 32.62516624 25.25207362 30.06640625 20.21484375 C26.05490857 17.54051197 22.78199964 17.39581964 18.06640625 18.21484375 C14.49005127 20.89710998 12.86984797 22.88156268 12.06640625 27.21484375 C11.95743246 28.61820845 11.89148777 30.02535624 11.86108398 31.43261719 C11.84113876 32.25316589 11.82119354 33.0737146 11.80064392 33.91912842 C11.78393143 34.79530823 11.76721893 35.67148804 11.75 36.57421875 C11.71882835 37.93078583 11.71882835 37.93078583 11.68702698 39.3147583 C11.62174685 42.1980443 11.56274673 45.08141985 11.50390625 47.96484375 C11.46070054 49.92188419 11.4170856 51.87891563 11.37304688 53.8359375 C11.2653189 58.62881588 11.16608534 63.42176417 11.06640625 68.21484375 C3.14640625 68.21484375 -4.77359375 68.21484375 -12.93359375 68.21484375 C-12.97097656 65.33636719 -13.00835938 62.45789063 -13.046875 59.4921875 C-13.09315308 56.68880839 -13.14436387 53.88555949 -13.19604492 51.08227539 C-13.22919534 49.1416014 -13.25725775 47.20083329 -13.2800293 45.26000977 C-13.31375759 42.46199628 -13.36608194 39.66483765 -13.421875 36.8671875 C-13.42826492 36.00649155 -13.43465485 35.14579559 -13.4412384 34.25901794 C-13.57137003 28.86602018 -14.32606253 24.97423232 -16.93359375 20.21484375 C-19.9556677 18.20012778 -20.85086074 17.87765341 -24.30859375 17.77734375 C-25.05882812 17.73738281 -25.8090625 17.69742187 -26.58203125 17.65625 C-30.30393699 18.54035718 -31.60784623 20.19674874 -33.93359375 23.21484375 C-34.68159728 26.65469721 -34.65502655 30.03675075 -34.640625 33.546875 C-34.65574631 34.53862228 -34.67086761 35.53036957 -34.68644714 36.5521698 C-34.72933577 39.7107922 -34.7381635 42.86845914 -34.74609375 46.02734375 C-34.76923707 48.17255146 -34.79460206 50.31773644 -34.82226562 52.46289062 C-34.88930186 57.7140623 -34.91025031 62.9625699 -34.93359375 68.21484375 C-43.18359375 68.21484375 -51.43359375 68.21484375 -59.93359375 68.21484375 C-59.93359375 45.44484375 -59.93359375 22.67484375 -59.93359375 -0.78515625 C-51.68359375 -0.78515625 -43.43359375 -0.78515625 -34.93359375 -0.78515625 C-34.93359375 0.86484375 -34.93359375 2.51484375 -34.93359375 4.21484375 C-33.90234375 3.43109375 -32.87109375 2.64734375 -31.80859375 1.83984375 C-22.80991556 -4.99915168 -9.93766171 -4.60046613 0 0 Z " fill="#E4E2DD" transform="translate(597.93359375,279.78515625)"/>
<path d="M0 0 C8.25 0 16.5 0 25 0 C25 38.28 25 76.56 25 116 C16.75 116 8.5 116 0 116 C-0.33 114.35 -0.66 112.7 -1 111 C-2.546875 112.175625 -2.546875 112.175625 -4.125 113.375 C-11.50394583 118.59929365 -19.75191715 119.69144164 -28.5625 118.3125 C-36.94307583 116.55679277 -44.46436783 112.84960794 -49.59765625 105.80859375 C-56.53430245 94.91788878 -58.62383469 84.06928954 -56.3125 71.3125 C-53.86577363 61.96431788 -48.076036 53.75412225 -39.8125 48.6484375 C-30.9562252 44.1226206 -20.42757936 43.36402986 -10.76171875 45.82421875 C-7.19447602 47.24583104 -4.19783762 48.86810826 -1 51 C-0.67 34.17 -0.34 17.34 0 0 Z M-27.8125 71.625 C-30.70978874 75.4036646 -31.27799708 79.31493151 -31 84 C-29.42715401 89.24281997 -27.16063228 92.46346256 -23 96 C-17.41759548 97.86080151 -11.94868031 97.93825348 -6.625 95.375 C-2.92305101 92.02561758 -0.36308843 89.48604424 0.3828125 84.37890625 C0.56651008 79.86606908 0.32112611 76.70647745 -1.5625 72.5625 C-5.5098432 68.41272894 -9.21199182 65.81978812 -15.0625 65.5625 C-20.72783395 66.19198155 -23.66538969 67.75436371 -27.8125 71.625 Z " fill="#E4E2DD" transform="translate(428,232)"/>
<path d="M0 0 C21.45 0 42.9 0 65 0 C65 7.59 65 15.18 65 23 C52.46 23 39.92 23 27 23 C27 29.93 27 36.86 27 44 C38.88 44 50.76 44 63 44 C63 51.59 63 59.18 63 67 C51.12 67 39.24 67 27 67 C27 73.93 27 80.86 27 88 C39.54 88 52.08 88 65 88 C65 95.59 65 103.18 65 111 C43.55 111 22.1 111 0 111 C0 74.37 0 37.74 0 0 Z " fill="#E4E2DD" transform="translate(313,71)"/>
<path d="M0 0 C0.74781738 0.00016113 1.49563477 0.00032227 2.26611328 0.00048828 C9.77652694 0.15482298 15.51510641 2.21840428 21.75 6.375 C22.08 5.055 22.41 3.735 22.75 2.375 C30.67 2.375 38.59 2.375 46.75 2.375 C46.75 25.145 46.75 47.915 46.75 71.375 C38.83 71.375 30.91 71.375 22.75 71.375 C22.42 69.725 22.09 68.075 21.75 66.375 C20.203125 67.550625 20.203125 67.550625 18.625 68.75 C11.10089781 74.07706435 2.79242077 74.95372228 -6.1875 73.8125 C-16.01553271 71.92441738 -23.62465811 66.61851964 -29.25 58.375 C-35.13732361 47.47986149 -36.26361232 34.91842064 -32.75 23 C-29.26388084 13.97782541 -23.13886278 6.43075488 -14.25 2.375 C-9.49339625 0.45327757 -5.08318794 -0.01022774 0 0 Z M-5.5625 27.9375 C-8.43410556 32.08537469 -8.65640889 35.41681157 -8.25 40.375 C-6.61608921 44.98889316 -4.67221665 48.94991345 -0.25 51.375 C4.09798948 52.82432983 8.20595345 52.89169065 12.75 52.375 C17.88308791 49.76179161 20.9297908 46.83562759 22.75 41.375 C23.38773912 35.98035437 23.12704736 31.47860267 20.0703125 26.8828125 C17.11038127 23.50253601 13.93714648 21.74460489 9.5078125 20.99609375 C2.74747127 20.64328133 -1.02786377 22.91263283 -5.5625 27.9375 Z " fill="#E4E2DD" transform="translate(319.25,276.625)"/>
<path d="M0 0 C9.57 0 19.14 0 29 0 C30.20398438 2.29839844 31.40796875 4.59679687 32.6484375 6.96484375 C33.81535439 9.18293965 34.98423843 11.39998795 36.15332031 13.61694336 C36.96625909 15.16110465 37.77714066 16.70635078 38.5859375 18.25268555 C39.74723882 20.47210884 40.9158248 22.68755611 42.0859375 24.90234375 C42.44746918 25.5971434 42.80900085 26.29194305 43.18148804 27.00779724 C44.92511335 30.6279527 44.92511335 30.6279527 48 33 C48.37769531 31.77410156 48.75539063 30.54820312 49.14453125 29.28515625 C51.19741983 23.1264905 53.94344594 17.3124191 56.6875 11.4375 C58.440625 7.663125 60.19375 3.88875 62 0 C71.57 0 81.14 0 91 0 C89.65955663 4.0213301 88.52846625 7.16793271 86.6015625 10.80859375 C85.89193359 12.15824219 85.89193359 12.15824219 85.16796875 13.53515625 C84.65878906 14.49292969 84.14960937 15.45070313 83.625 16.4375 C82.53373586 18.50905227 81.44259339 20.58066863 80.3515625 22.65234375 C79.7937207 23.7079248 79.23587891 24.76350586 78.66113281 25.85107422 C76.09002632 30.72499127 73.54557488 35.61271481 71 40.5 C69.99755187 42.42195639 68.99494734 44.34383122 67.9921875 46.265625 C67.49686523 47.21501953 67.00154297 48.16441406 66.49121094 49.14257812 C65.01818224 51.96515965 63.54435674 54.78732371 62.0703125 57.609375 C61.58481934 58.53919189 61.09932617 59.46900879 60.59912109 60.42700195 C59.62068322 62.30074775 58.6418456 64.17428486 57.66259766 66.04760742 C55.1535304 70.85247532 52.65550616 75.66271476 50.17739868 80.48361206 C48.89252338 82.9831322 47.60511417 85.48134435 46.31781006 87.97961426 C45.69290726 89.19446704 45.06939546 90.4100364 44.44732666 91.62634277 C43.58024051 93.32163702 42.70819736 95.01439316 41.8359375 96.70703125 C41.08642822 98.16846558 41.08642822 98.16846558 40.32177734 99.65942383 C39 102 39 102 37 104 C34.20263672 104.22705078 34.20263672 104.22705078 30.6796875 104.1953125 C28.79443359 104.18564453 28.79443359 104.18564453 26.87109375 104.17578125 C25.55238281 104.15902344 24.23367188 104.14226562 22.875 104.125 C21.53516279 104.11496983 20.19531848 104.10584404 18.85546875 104.09765625 C15.57013427 104.07402075 12.28515535 104.04107234 9 104 C10.46534577 99.14759739 12.4759356 94.8439038 14.80859375 90.37109375 C15.35967552 89.30291161 15.35967552 89.30291161 15.92189026 88.21315002 C16.69565321 86.71534997 17.47148264 85.21861584 18.24926758 83.72290039 C19.43449064 81.4432881 20.61328703 79.16044483 21.79101562 76.87695312 C22.54650117 75.41647323 23.30234842 73.95618037 24.05859375 72.49609375 C24.40869003 71.81888779 24.75878632 71.14168182 25.11949158 70.44395447 C26.57642671 67.6453594 28.03109028 64.95434861 29.80883789 62.34399414 C31.21427193 60.06610784 31.21427193 60.06610784 30.85424805 57.50488281 C29.92107585 54.76857338 28.7659742 52.43344638 27.33203125 49.921875 C26.77483398 48.93735352 26.21763672 47.95283203 25.64355469 46.93847656 C25.03930664 45.8862793 24.43505859 44.83408203 23.8125 43.75 C22.54287996 41.510467 21.2733515 39.27088208 20.00390625 37.03125 C19.34026229 35.86573974 18.67636024 34.7003764 18.01220703 33.53515625 C14.73674911 27.78546016 11.49246349 22.01835576 8.25 16.25 C7.65421143 15.19780273 7.05842285 14.14560547 6.44458008 13.06152344 C5.8905249 12.07700195 5.33646973 11.09248047 4.765625 10.078125 C4.27868164 9.21606445 3.79173828 8.35400391 3.29003906 7.46582031 C2 5 2 5 0 0 Z " fill="#E4E2DD" transform="translate(654,279)"/>
<path d="M0 0 C1.27493351 1.05387649 2.52628944 2.13705635 3.75 3.25 C4.306875 3.75273437 4.86375 4.25546875 5.4375 4.7734375 C13.62327036 13.16385212 13.75 22.97884031 13.75 34.25 C-2.75 34.25 -19.25 34.25 -36.25 34.25 C-33.58520903 42.4252871 -33.58520903 42.4252871 -27.25 46.25 C-20.93765723 47.80221544 -16.10165629 47.14099686 -10.25 44.25 C-9.5075 43.5075 -8.765 42.765 -8 42 C-7.4225 41.4225 -6.845 40.845 -6.25 40.25 C-1.70659452 40.60456703 2.08654211 42.74467432 6.0625 44.8125 C6.70767578 45.14185547 7.35285156 45.47121094 8.01757812 45.81054688 C9.59785228 46.61824255 11.17432105 47.43337613 12.75 48.25 C10.14730203 55.70847777 4.71376584 60.57484487 -2.25 64.125 C-13.87515226 68.881477 -27.1233805 69.6824604 -38.9296875 65.2421875 C-47.71286409 61.21100311 -55.20100649 55.17306494 -59.25 46.25 C-62.70730208 36.88703407 -63.60849138 27.38497143 -59.9765625 17.9375 C-54.92822642 7.48206284 -48.16190725 -0.1462526 -37.25 -4.6875 C-25.41011775 -8.08539847 -10.15776355 -7.11423889 0 0 Z M-34.125 15.25 C-35.49513062 17.30333861 -35.49513062 17.30333861 -35.25 20.25 C-27 20.25 -18.75 20.25 -10.25 20.25 C-12.03201883 15.79495294 -12.78867178 14.18688455 -16.25 11.25 C-23.04575895 8.98474702 -29.13486925 9.92719387 -34.125 15.25 Z " fill="#E4E2DD" transform="translate(519.25,282.75)"/>
<path d="M0 0 C1.5546875 1.65625 1.5546875 1.65625 2 4 C0.8262169 6.77225155 -0.36902276 9.17180596 -1.875 11.75 C-2.46087891 12.79607422 -2.46087891 12.79607422 -3.05859375 13.86328125 C-4.02480413 15.58360705 -5.0105736 17.29292098 -6 19 C-7.95109049 18.4913737 -9.90218099 17.9827474 -11.85327148 17.47412109 C-16.7303564 16.39698031 -21.18019077 16.29221098 -25.75 18.5625 C-29.44478504 20.9805973 -31.61754239 23.80325368 -33 28 C-33.86913129 33.66910639 -33.2600592 38.16611912 -30 43 C-25.57165992 47.09621458 -22.43400046 48.0936356 -16.42578125 48.23046875 C-12.88781225 47.89433321 -9.44779032 46.86194758 -6 46 C-3.36 51.28 -0.72 56.56 2 62 C-4.44251782 68.44251782 -13.00282325 69.97322269 -22 70 C-33.70855822 69.26821511 -44.27816608 64.9097798 -52.3125 56.22265625 C-59.79057506 46.37306201 -61.06874125 35.99494609 -60 24 C-59.17379289 20.56769959 -57.93005517 17.9401775 -56 15 C-55.57589844 14.31808594 -55.15179688 13.63617188 -54.71484375 12.93359375 C-43.19545343 -3.97648619 -18.22062362 -10.54193224 0 0 Z " fill="#E4E2DD" transform="translate(285,281)"/>
</svg>
