<svg id="Group_7677" data-name="Group 7677" xmlns="http://www.w3.org/2000/svg" xmlns:xlink="http://www.w3.org/1999/xlink" width="190" height="39" viewBox="0 0 190 39">
  <defs>
    <clipPath id="clip-path">
      <rect id="Rectangle_14150" data-name="Rectangle 14150" width="190" height="39" fill="none"/>
    </clipPath>
  </defs>
  <g id="Group_7676" data-name="Group 7676" transform="translate(0 0)" clip-path="url(#clip-path)">
    <path id="Path_16623" data-name="Path 16623" d="M174.473,24.066c0,7.269-3.395,13.154-7.575,13.154s-7.579-5.884-7.579-13.154,3.393-13.151,7.579-13.151,7.575,5.887,7.575,13.151" transform="translate(-50.611 -3.588)" fill="#00acbb"/>
    <path id="Path_16624" data-name="Path 16624" d="M175.323,3.118C183.568,4.8,189.8,12.409,189.8,21.541c0,9.245-6.391,16.927-14.785,18.483H191.43V3.118Z" transform="translate(-55.598 -1.025)" fill="#00acbb"/>
    <path id="Path_16625" data-name="Path 16625" d="M143.4,21.542c0-9.133,6.227-16.74,14.48-18.423H141.752V40.025h16.426c-8.4-1.556-14.781-9.239-14.781-18.483" transform="translate(-45.031 -1.025)" fill="#00acbb"/>
    <path id="Path_16626" data-name="Path 16626" d="M215.064,3.193l10.489,21.034V3.193Z" transform="translate(-68.32 -1.049)" fill="#00acbb"/>
    <path id="Path_16627" data-name="Path 16627" d="M213.847,47.043h11l-11-22.575Z" transform="translate(-67.934 -8.043)" fill="#00acbb"/>
    <rect id="Rectangle_14148" data-name="Rectangle 14148" width="7.096" height="36.906" transform="translate(167.303 2.094)" fill="#00acbb"/>
    <rect id="Rectangle_14149" data-name="Rectangle 14149" width="10.433" height="36.906" transform="translate(24.807 2.094)" fill="#00acbb"/>
    <path id="Path_16628" data-name="Path 16628" d="M81.86,3.127H54.253v6.72H62.78V40.028H73.319V9.851H81.86Z" transform="translate(-17.235 -1.028)" fill="#00acbb"/>
    <path id="Path_16629" data-name="Path 16629" d="M23.03,40.013V33.3H10.538V3.118H0V40.013Z" transform="translate(0 -1.025)" fill="#00acbb"/>
    <path id="Path_16630" data-name="Path 16630" d="M125.89,40.016V33.278H107.771V24.983H123.82V18.242H107.771V9.858H125.89V3.127H97.324V40.016Z" transform="translate(-30.917 -1.028)" fill="#00acbb"/>
    <path id="Path_16631" data-name="Path 16631" d="M268.737,8.914V6.469h.855a1.981,1.981,0,0,1,.4.024.935.935,0,0,1,.33.144,1.812,1.812,0,0,1,.386.37c.132.177.31.426.528.757l.731,1.149h.927l-.972-1.5a3.956,3.956,0,0,0-.6-.732,2.219,2.219,0,0,0-.448-.271,1.967,1.967,0,0,0,1.182-.512,1.409,1.409,0,0,0,.379-.988,1.554,1.554,0,0,0-.23-.83,1.218,1.218,0,0,0-.618-.524,3.353,3.353,0,0,0-1.129-.146H268V8.914Zm0-4.895h1.755a1.342,1.342,0,0,1,.9.252.794.794,0,0,1,.287.631.955.955,0,0,1-.151.493.83.83,0,0,1-.428.322,2.212,2.212,0,0,1-.785.107h-1.576Z" transform="translate(-85.136 -1.12)" fill="#00acbb"/>
    <path id="Path_16632" data-name="Path 16632" d="M263.544,5a5.089,5.089,0,0,0,10.177,0,5.089,5.089,0,0,0-10.177,0m.783,0a4.306,4.306,0,0,1,8.61,0,4.306,4.306,0,0,1-8.61,0" transform="translate(-83.721 0)" fill="#00acbb"/>
  </g>
</svg>
