<?xml version="1.0" encoding="UTF-8"?>
<!DOCTYPE svg PUBLIC "-//W3C//DTD SVG 1.1//EN" "http://www.w3.org/Graphics/SVG/1.1/DTD/svg11.dtd">
<svg xmlns="http://www.w3.org/2000/svg" version="1.1" width="1080px" height="1080px" style="shape-rendering:geometricPrecision; text-rendering:geometricPrecision; image-rendering:optimizeQuality; fill-rule:evenodd; clip-rule:evenodd" xmlns:xlink="http://www.w3.org/1999/xlink">
<g><path style="opacity:0.978" fill="#e3e2dc" d="M 745.5,323.5 C 820.833,323.5 896.167,323.5 971.5,323.5C 971.5,399.833 971.5,476.167 971.5,552.5C 962.5,552.5 953.5,552.5 944.5,552.5C 944.5,485.5 944.5,418.5 944.5,351.5C 878.167,351.5 811.833,351.5 745.5,351.5C 745.5,342.167 745.5,332.833 745.5,323.5 Z"/></g>
<g><path style="opacity:0.954" fill="#e3e2dc" d="M 420.5,394.5 C 442.167,394.5 463.833,394.5 485.5,394.5C 485.5,402.167 485.5,409.833 485.5,417.5C 472.833,417.5 460.167,417.5 447.5,417.5C 447.5,424.5 447.5,431.5 447.5,438.5C 459.5,438.5 471.5,438.5 483.5,438.5C 483.5,446.167 483.5,453.833 483.5,461.5C 471.5,461.5 459.5,461.5 447.5,461.5C 447.5,468.5 447.5,475.5 447.5,482.5C 460.167,482.5 472.833,482.5 485.5,482.5C 485.5,490.167 485.5,497.833 485.5,505.5C 463.833,505.5 442.167,505.5 420.5,505.5C 420.5,468.5 420.5,431.5 420.5,394.5 Z"/></g>
<g><path style="opacity:0.962" fill="#e3e2dc" d="M 493.5,394.5 C 509.837,394.333 526.17,394.5 542.5,395C 564.618,400.715 573.451,414.882 569,437.5C 565.594,448.573 558.427,456.073 547.5,460C 559.71,473.874 571.543,488.041 583,502.5C 583.5,466.502 583.667,430.502 583.5,394.5C 600.503,394.333 617.503,394.5 634.5,395C 659.275,401.702 668.108,417.535 661,442.5C 656.702,452.796 649.202,459.629 638.5,463C 629.234,464.386 619.9,464.886 610.5,464.5C 610.5,478.167 610.5,491.833 610.5,505.5C 590.831,505.667 571.164,505.5 551.5,505C 541.382,491.214 530.882,477.714 520,464.5C 519.5,478.163 519.333,491.829 519.5,505.5C 510.833,505.5 502.167,505.5 493.5,505.5C 493.5,468.5 493.5,431.5 493.5,394.5 Z M 519.5,415.5 C 526.221,414.751 532.554,415.918 538.5,419C 544.33,427.009 543.664,434.343 536.5,441C 531.028,443.015 525.362,443.848 519.5,443.5C 519.5,434.167 519.5,424.833 519.5,415.5 Z M 610.5,415.5 C 619.565,414.054 627.399,416.387 634,422.5C 637.893,433.169 634.393,440.002 623.5,443C 619.179,443.499 614.846,443.666 610.5,443.5C 610.5,434.167 610.5,424.833 610.5,415.5 Z"/></g>
<g><path style="opacity:0.978" fill="#e3e2dc" d="M 107.5,526.5 C 116.5,526.5 125.5,526.5 134.5,526.5C 134.5,593.5 134.5,660.5 134.5,727.5C 200.833,727.5 267.167,727.5 333.5,727.5C 333.5,736.833 333.5,746.167 333.5,755.5C 258.167,755.5 182.833,755.5 107.5,755.5C 107.5,679.167 107.5,602.833 107.5,526.5 Z"/></g>
<g><path style="opacity:0.954" fill="#e3e2dc" d="M 535.5,555.5 C 543.833,555.5 552.167,555.5 560.5,555.5C 560.5,594.167 560.5,632.833 560.5,671.5C 552.167,671.5 543.833,671.5 535.5,671.5C 535.662,669.473 535.495,667.473 535,665.5C 522.208,675.371 508.708,676.538 494.5,669C 477.064,653.472 473.897,635.306 485,614.5C 494.327,602.5 506.494,598 521.5,601C 526.463,602.232 530.963,604.398 535,607.5C 535.5,590.17 535.667,572.837 535.5,555.5 Z M 516.5,621.5 C 533.5,622.157 539,630.491 533,646.5C 525.574,653.709 517.574,654.376 509,648.5C 501.712,636.642 504.212,627.642 516.5,621.5 Z"/></g>
<g><path style="opacity:0.965" fill="#e3e2dc" d="M 269.5,560.5 C 277.86,560.169 286.193,560.502 294.5,561.5C 309.74,597.973 324.406,634.64 338.5,671.5C 329.143,671.832 319.81,671.498 310.5,670.5C 307.927,663.61 305.26,656.777 302.5,650C 288.821,649.167 275.154,649.334 261.5,650.5C 258.927,657.39 256.26,664.223 253.5,671C 244.149,671.832 234.816,671.665 225.5,670.5C 240.369,633.889 255.036,597.222 269.5,560.5 Z M 281.5,596.5 C 285.865,605.905 289.865,615.571 293.5,625.5C 285.855,626.665 278.188,626.831 270.5,626C 274.664,616.341 278.33,606.508 281.5,596.5 Z"/></g>
<g><path style="opacity:0.949" fill="#e3e2dc" d="M 362.5,600.5 C 372.104,599.717 381.437,600.884 390.5,604C 392.303,604.637 393.636,605.803 394.5,607.5C 391.961,612.745 389.294,617.912 386.5,623C 382.608,622.103 378.608,621.269 374.5,620.5C 364.598,621.568 359.265,627.068 358.5,637C 359.265,646.932 364.598,652.432 374.5,653.5C 378.388,653.278 382.054,652.278 385.5,650.5C 388.597,655.853 391.597,661.353 394.5,667C 378.467,676.779 362.467,676.445 346.5,666C 331.969,653.435 328.469,638.268 336,620.5C 342.445,610.54 351.279,603.874 362.5,600.5 Z"/></g>
<g><path style="opacity:0.967" fill="#e3e2dc" d="M 418.5,600.5 C 429.701,598.743 439.868,601.076 449,607.5C 449.494,605.866 449.66,604.199 449.5,602.5C 457.5,602.5 465.5,602.5 473.5,602.5C 473.5,625.5 473.5,648.5 473.5,671.5C 465.5,671.5 457.5,671.5 449.5,671.5C 449.662,669.473 449.495,667.473 449,665.5C 434.805,676.402 420.305,676.902 405.5,667C 391.937,653.367 388.77,637.534 396,619.5C 400.902,609.982 408.402,603.649 418.5,600.5 Z M 429.5,621.5 C 445.652,621.137 451.818,628.803 448,644.5C 441.874,652.945 434.041,654.778 424.5,650C 415.351,638.534 417.018,629.034 429.5,621.5 Z"/></g>
<g><path style="opacity:0.95" fill="#e3e2dc" d="M 594.5,600.5 C 606.313,598.924 617.313,601.091 627.5,607C 637.418,615.91 641.752,627.076 640.5,640.5C 623.833,640.5 607.167,640.5 590.5,640.5C 591.632,649.459 596.798,654.126 606,654.5C 612.301,653.683 617.634,651.016 622,646.5C 628.053,649.109 633.886,652.109 639.5,655.5C 630.765,668.285 618.599,674.618 603,674.5C 579.961,672.461 567.128,659.961 564.5,637C 566.771,618.249 576.771,606.082 594.5,600.5 Z M 600.5,616.5 C 608.479,615.327 613.812,618.494 616.5,626C 608.173,626.5 599.84,626.666 591.5,626.5C 592.421,621.248 595.421,617.915 600.5,616.5 Z"/></g>
<g><path style="opacity:0.968" fill="#e3e2dc" d="M 683.5,600.5 C 695.757,598.385 705.757,602.052 713.5,611.5C 726.045,598.983 740.045,597.15 755.5,606C 759.666,609.165 762.166,613.332 763,618.5C 763.5,636.164 763.667,653.83 763.5,671.5C 755.5,671.5 747.5,671.5 739.5,671.5C 739.913,656.783 739.413,642.116 738,627.5C 734.423,620.447 728.923,618.614 721.5,622C 718.819,624.194 717.319,627.027 717,630.5C 716.5,644.163 716.333,657.829 716.5,671.5C 708.5,671.5 700.5,671.5 692.5,671.5C 692.667,657.829 692.5,644.163 692,630.5C 689.6,620.884 683.767,618.051 674.5,622C 672.951,623.214 671.785,624.714 671,626.5C 670.5,641.496 670.333,656.496 670.5,671.5C 662.167,671.5 653.833,671.5 645.5,671.5C 645.5,648.5 645.5,625.5 645.5,602.5C 653.833,602.5 662.167,602.5 670.5,602.5C 670.215,604.288 670.548,605.955 671.5,607.5C 675.062,604.241 679.062,601.907 683.5,600.5 Z"/></g>
<g><path style="opacity:0.956" fill="#e3e2dc" d="M 761.5,602.5 C 771.19,602.168 780.856,602.502 790.5,603.5C 796.009,614.526 802.009,625.192 808.5,635.5C 814.082,624.75 819.082,613.75 823.5,602.5C 833.19,602.168 842.856,602.502 852.5,603.5C 834.882,637.904 816.882,672.07 798.5,706C 789.149,706.832 779.816,706.665 770.5,705.5C 778.302,690.729 785.969,675.896 793.5,661C 782.943,641.382 772.276,621.882 761.5,602.5 Z"/></g>
</svg>
