<?xml version="1.0" encoding="UTF-8"?>
<svg version="1.1" xmlns="http://www.w3.org/2000/svg" width="864" height="433">
<path d="M0 0 C210.54 0 421.08 0 638 0 C638 9.24 638 18.48 638 28 C703.67 28 769.34 28 837 28 C837 94.33 837 160.66 837 229 C845.91 229 854.82 229 864 229 C864 296.32 864 363.64 864 433 C578.88 433 293.76 433 0 433 C0 432.67 0 432.34 0 432 C74.58 432 149.16 432 226 432 C226 422.76 226 413.52 226 404 C160.33 404 94.66 404 27 404 C27 337.67 27 271.34 27 203 C18.09 203 9.18 203 0 203 C0 136.01 0 69.02 0 0 Z M313 71 C313 107.63 313 144.26 313 182 C334.45 182 355.9 182 378 182 C378 174.41 378 166.82 378 159 C365.46 159 352.92 159 340 159 C340 152.07 340 145.14 340 138 C351.88 138 363.76 138 376 138 C376 130.41 376 122.82 376 115 C364.12 115 352.24 115 340 115 C340 108.07 340 101.14 340 94 C352.54 94 365.08 94 378 94 C378 86.41 378 78.82 378 71 C356.55 71 335.1 71 313 71 Z M386 71 C386 107.63 386 144.26 386 182 C394.58 182 403.16 182 412 182 C412.33 168.8 412.66 155.6 413 142 C426.82451923 159.28064904 426.82451923 159.28064904 431.875 165.9375 C432.390625 166.61361328 432.90625 167.28972656 433.4375 167.98632812 C433.95054687 168.65986328 434.46359375 169.33339844 434.9921875 170.02734375 C435.47218201 170.63831406 435.95217651 171.24928436 436.44671631 171.87876892 C438 174 438 174 439.13189697 176.11048889 C440.54749209 178.54870562 441.81364886 180.20338578 444 182 C448.50238598 183.1189701 452.87723722 182.93253202 457.4921875 182.78125 C458.79326447 182.76993042 460.09434143 182.75861084 461.43484497 182.74694824 C464.87855061 182.71653645 468.31951629 182.63808365 471.762146 182.54931641 C475.28115097 182.46717884 478.80061615 182.43043845 482.3203125 182.390625 C489.21595398 182.30930847 496.10409267 182.15277087 503 182 C503 168.47 503 154.94 503 141 C514.3125 141.25 514.3125 141.25 517.8059082 141.36035156 C528.54502979 141.47363536 538.14245271 138.58719895 546.03125 131.0625 C553.97756616 122.77069183 556 114.36263671 556 103 C555.19752547 93.59600157 552.74762275 86.33171809 545.875 79.75 C527.03538291 63.89980975 497.32891472 71 476 71 C475.67 105.98 475.34 140.96 475 177 C464.94824708 165.83138564 464.94824708 165.83138564 461.625 161.6875 C457.77623045 156.93393199 453.85324665 152.25116252 449.89306641 147.59057617 C446.90791175 144.0772276 443.94669863 140.54557803 441 137 C441.85271484 136.58041016 441.85271484 136.58041016 442.72265625 136.15234375 C451.21695806 131.7421136 457.80855894 126.25676685 461 117 C463.95369397 106.48607381 463.72244615 95.33975005 458.5 85.5625 C452.49085232 76.69463159 445.10657207 74.03197162 435 71 C418.83 71 402.66 71 386 71 Z M428 232 C427.67 248.83 427.34 265.66 427 283 C424.03 281.35 421.06 279.7 418 278 C409.37354392 275.84338598 397.93758766 275.28338233 389.921875 279.6640625 C380.59997087 286.14392269 374.20637316 293.72610065 371.25 304.8125 C370.20710622 318.10939566 371.64122095 329.16992976 380 340 C387.28609572 347.17815356 395.74169208 351 406 351 C413.64742237 350.3008071 421.39672719 348.60327281 427 343 C427.33 344.65 427.66 346.3 428 348 C436.25 348 444.5 348 453 348 C453 309.72 453 271.44 453 232 C444.75 232 436.5 232 428 232 Z M162 237 C146.58829405 274.66659918 146.58829405 274.66659918 131.42382812 312.43310547 C129.82860681 316.42936463 128.21979116 320.42000407 126.609375 324.41015625 C125.7634858 326.50995304 124.91792592 328.60988209 124.07250977 330.70986938 C123.52925967 332.057332 122.98484803 333.40432697 122.43920898 334.75082397 C121.69074966 336.59825556 120.94682048 338.44752055 120.203125 340.296875 C119.56358887 341.88000488 119.56358887 341.88000488 118.91113281 343.49511719 C117.88605623 345.86901282 117.88605623 345.86901282 118 348 C127.24 348 136.48 348 146 348 C151.04666333 336.46908928 151.04666333 336.46908928 154 326 C174.295 326.495 174.295 326.495 195 327 C197.64 333.93 200.28 340.86 203 348 C212.24 348 221.48 348 231 348 C230.12583549 343.62917744 228.87441079 339.85509187 227.2109375 335.765625 C226.91955902 335.03930374 226.62818054 334.31298248 226.32797241 333.56465149 C225.34785519 331.12471841 224.36147979 328.6873669 223.375 326.25 C222.67706389 324.51698459 221.97948233 322.78382636 221.28222656 321.05053711 C219.73269552 317.20111411 218.18022641 313.35289116 216.62597656 309.50537109 C214.25126977 303.62546297 211.88391119 297.74261366 209.51785278 291.85922241 C207.18706129 286.06359832 204.85354107 280.26907331 202.51990509 274.47459412 C201.75310748 272.57021756 200.98671645 270.66567779 200.22039795 268.7611084 C198.76872707 265.15373231 197.31418474 261.54751767 195.859375 257.94140625 C195.21178726 256.33112297 195.21178726 256.33112297 194.55111694 254.68830872 C194.14205109 253.67556381 193.73298523 252.66281891 193.31152344 251.61938477 C192.96007263 250.74741959 192.60862183 249.87545441 192.246521 248.97706604 C190.56314863 244.9566679 188.77019278 240.98293375 187 237 C178.75 237 170.5 237 162 237 Z M231.125 292.4375 C224.48423038 301.66678307 223.87770863 310.85172146 225 322 C226.81845867 331.22564697 233.12662669 338.45306364 240.59765625 343.890625 C251.41539875 350.61296272 261.39506953 351.90730743 273.86328125 349.73828125 C278.16190032 348.72652657 282.23355599 347.34031473 286 345 C286.33 344.34 286.66 343.68 287 343 C286.38822183 341.21955835 286.38822183 341.21955835 285.34765625 339.3046875 C284.98349609 338.58925781 284.61933594 337.87382812 284.24414062 337.13671875 C283.85419922 336.39035156 283.46425781 335.64398438 283.0625 334.875 C282.67642578 334.12089844 282.29035156 333.36679687 281.89257812 332.58984375 C280.93547868 330.72290903 279.96863894 328.86097372 279 327 C277.76507813 327.32355469 276.53015625 327.64710938 275.2578125 327.98046875 C269.73676092 329.35526165 265.24955969 329.8219545 259.75 327.8125 C255.76438846 325.18561967 253.51019469 322.53058408 252 318 C251.36212548 312.60420902 251.62672769 308.10813892 254.67578125 303.5078125 C258.18921651 299.50726379 261.68848637 298.12490606 266.9375 297.625 C271.11565201 297.83291872 274.96437927 298.94796123 279 300 C280.39506477 297.59306422 281.76569383 295.17701201 283.125 292.75 C283.52332031 292.06808594 283.92164063 291.38617188 284.33203125 290.68359375 C286.52999297 286.8896137 286.52999297 286.8896137 286.5546875 282.65625 C281.61209697 277.39077667 273.13849988 276.77997964 266.27905273 276.52270508 C251.51143438 276.37950953 240.65906681 280.86896705 231.125 292.4375 Z M294 287 C285.41646467 297.54722148 283.83572147 308.76956213 285 322 C287.03850828 331.80425411 292.36289214 339.7226218 300.5625 345.4375 C309.38521836 350.82337529 318.22963238 351.85979339 328.2734375 349.80859375 C332.7456747 348.48229991 337.64719141 346.35280859 341 343 C341.33 344.65 341.66 346.3 342 348 C349.92 348 357.84 348 366 348 C366 325.23 366 302.46 366 279 C358.08 279 350.16 279 342 279 C341.67 280.32 341.34 281.64 341 283 C340.39671875 282.65066406 339.7934375 282.30132812 339.171875 281.94140625 C338.37265625 281.48636719 337.5734375 281.03132813 336.75 280.5625 C335.96109375 280.11003906 335.1721875 279.65757812 334.359375 279.19140625 C321.51975433 272.70782296 303.45498945 276.59487681 294 287 Z M467 288 C459.86313654 296.82347451 456.81771043 305.64596379 457 317 C458.25101171 327.75337724 463.02683369 335.96783393 471.3125 342.875 C482.54749157 350.94896004 493.8472684 351.88925325 507.24609375 349.84765625 C516.72833374 347.70650528 525.15874296 342.90570131 531 335 C531.36787276 333.67578003 531.70645778 332.34265478 532 331 C529.42362412 329.63092584 526.84031896 328.27971545 524.25 326.9375 C523.52039063 326.54755859 522.79078125 326.15761719 522.0390625 325.75585938 C520.97558594 325.20961914 520.97558594 325.20961914 519.890625 324.65234375 C519.24125977 324.31195068 518.59189453 323.97155762 517.92285156 323.62084961 C515.52691702 322.84725114 514.33115583 323.10639026 512 324 C510.948125 324.9590625 510.948125 324.9590625 509.875 325.9375 C505.22390958 329.27415183 500.19087655 330.4324085 494.4921875 329.66015625 C490.31490813 328.4952054 488.35853937 327.42128376 485.5 324.0625 C484 321 484 321 483 317 C499.5 317 516 317 533 317 C533 303.18175395 532.08378365 295.00209999 522.3671875 285.0625 C512.91694655 276.8286267 501.11057681 276.20213086 489.13525391 276.80908203 C480.43380785 277.58709836 473.11724325 281.93045456 467 288 Z M563 284 C563 282.35 563 280.7 563 279 C554.75 279 546.5 279 538 279 C538 301.77 538 324.54 538 348 C546.25 348 554.5 348 563 348 C563.01417969 344.80957031 563.02835938 341.61914062 563.04296875 338.33203125 C563.07359442 335.23744157 563.11268194 332.14306625 563.15258789 329.04858398 C563.17576522 326.90022376 563.19016297 324.75174996 563.19555664 322.60327148 C563.20484791 319.51213827 563.24584351 316.42279088 563.29296875 313.33203125 C563.28706978 311.89426079 563.28706978 311.89426079 563.28105164 310.42744446 C563.38241128 305.78051651 563.48193042 303.66964062 566.40161133 299.89575195 C569.83138593 297.3934312 571.73044425 297.27472517 575.84375 297.5078125 C579.36354295 298.3112435 580.92717275 300.14986253 583 303 C583.88713183 305.76539062 584.14279994 308.32388283 584.20532227 311.21777344 C584.2352401 312.4485965 584.2352401 312.4485965 584.26576233 313.70428467 C584.28247482 314.58046448 584.29918732 315.45664429 584.31640625 316.359375 C584.33718735 317.26375305 584.35796844 318.1681311 584.37937927 319.09991455 C584.4446594 321.98320055 584.50365952 324.8665761 584.5625 327.75 C584.60570571 329.70704044 584.64932065 331.66407188 584.69335938 333.62109375 C584.80108735 338.41397213 584.90032091 343.20692042 585 348 C592.92 348 600.84 348 609 348 C609.03738281 345.12152344 609.07476563 342.24304688 609.11328125 339.27734375 C609.15955933 336.47396464 609.21077012 333.67071574 609.26245117 330.86743164 C609.29560159 328.92675765 609.323664 326.98598954 609.34643555 325.04516602 C609.38016384 322.24715253 609.43248819 319.4499939 609.48828125 316.65234375 C609.49467117 315.7916478 609.5010611 314.93095184 609.50764465 314.04417419 C609.63777628 308.65117643 610.39246878 304.75938857 613 300 C617.02464978 297.31690015 620.27292814 297.32348066 625 298 C628.6008652 300.30824692 629.48451907 302.91583146 630.58294678 306.95706177 C631.34428106 310.68646325 631.36040009 314.41962009 631.4140625 318.21484375 C631.43342865 319.07058487 631.4527948 319.92632599 631.4727478 320.80799866 C631.53210914 323.51773383 631.57875366 326.2275125 631.625 328.9375 C631.66321985 330.78452284 631.70227387 332.63152861 631.7421875 334.47851562 C631.83933132 338.98558388 631.9192431 343.49248973 632 348 C639.92 348 647.84 348 656 348 C656.06900927 340.59811726 656.12870429 333.1973587 656.16479492 325.79541016 C656.17984619 323.27942108 656.20029181 320.76345808 656.22631836 318.24755859 C656.26286182 314.62330675 656.27976353 310.999403 656.29296875 307.375 C656.31619453 305.69796997 656.31619453 305.69796997 656.33988953 303.98706055 C656.34142796 296.78692014 655.89928395 290.63214065 651.23828125 284.79296875 C642.8900197 277.83326186 636.51068718 276.39590941 625.5546875 276.65625 C617.05912418 277.47779898 611.41002613 282.71766365 605 288 C604.71382812 287.38253906 604.42765625 286.76507813 604.1328125 286.12890625 C601.70868256 281.57321378 597.28041061 279.18170799 592.5 277.54296875 C581.72342014 275.20243031 571.42605056 276.67299951 563 284 Z M654 279 C655.35311382 282.38278456 656.63864527 285.33742351 658.36328125 288.4921875 C658.83185547 289.35126709 659.30042969 290.21034668 659.78320312 291.09545898 C660.54020508 292.47133179 660.54020508 292.47133179 661.3125 293.875 C661.83650391 294.83156494 662.36050781 295.78812988 662.90039062 296.77368164 C667.92096787 305.91098369 673.04099887 314.99175772 678.1875 324.05859375 C678.66703125 324.91050293 679.1465625 325.76241211 679.640625 326.64013672 C680.49512851 328.12354745 681.3770456 329.59183099 682.296875 331.03564453 C685.06052452 335.42601412 685.06052452 335.42601412 684.74804688 338.3894043 C683.96252308 341.13079005 682.9303633 343.40422784 681.59375 345.921875 C681.10100586 346.85749268 680.60826172 347.79311035 680.10058594 348.75708008 C679.57239258 349.74474365 679.04419922 350.73240723 678.5 351.75 C677.6961084 353.27306763 677.6961084 353.27306763 676.87597656 354.8269043 C674.33550729 359.63467817 671.77110144 364.42953381 669.203125 369.22265625 C668.57760742 370.39393066 668.57760742 370.39393066 667.93945312 371.58886719 C667.16125395 373.04367797 666.37886282 374.49625611 665.59179688 375.94628906 C663.65272068 379.2841638 663.65272068 379.2841638 663 383 C667.56164082 383.23248586 672.12176219 383.37448143 676.6875 383.5 C677.98107422 383.56703125 679.27464844 383.6340625 680.60742188 383.703125 C682.47817383 383.74179687 682.47817383 383.74179687 684.38671875 383.78125 C685.53358154 383.82314453 686.68044434 383.86503906 687.86206055 383.90820312 C691.37448354 382.8916145 691.73177395 382.45803754 693.61767578 379.51879883 C694.43651696 378.02583371 695.23005021 376.51875707 696 375 C696.38531387 374.28286835 696.77062775 373.56573669 697.1676178 372.82687378 C698.38529987 370.53823861 699.56134287 368.23176034 700.73046875 365.91796875 C701.16579422 365.06431229 701.60111969 364.21065582 702.04963684 363.33113098 C703.43236174 360.61832068 704.81020525 357.9030706 706.1875 355.1875 C707.99167337 351.6383967 709.7979701 348.09037961 711.60546875 344.54296875 C712.05303528 343.66412018 712.50060181 342.78527161 712.96173096 341.87979126 C716.80623923 334.34600071 720.73851584 326.86032098 724.68969727 319.38208008 C726.77885849 315.4261969 728.84547165 311.45914566 730.8984375 307.484375 C731.47980469 306.35902344 732.06117188 305.23367188 732.66015625 304.07421875 C733.82741027 301.81150082 734.99405332 299.54846762 736.16015625 297.28515625 C740.93674424 288.04326353 740.93674424 288.04326353 743.4140625 283.828125 C745.16303896 281.24966909 745.16303896 281.24966909 745 279 C735.43 279 725.86 279 716 279 C714.00270418 283.37672732 712.00771656 287.75435668 710.01855469 292.13476562 C709.34086709 293.62528849 708.66183545 295.11520102 707.98144531 296.60449219 C707.0049389 298.74255726 706.03325234 300.88275492 705.0625 303.0234375 C704.75626709 303.69120209 704.45003418 304.35896667 704.13452148 305.04696655 C702.53149718 308.38932799 702.53149718 308.38932799 702 312 C698.8060994 309.2901547 697.11286875 305.79517018 695.20703125 302.14453125 C694.85613937 301.48289474 694.5052475 300.82125824 694.14372253 300.13957214 C693.02815366 298.03322949 691.92024757 295.92296462 690.8125 293.8125 C690.05584104 292.38059373 689.29868516 290.94894993 688.54101562 289.51757812 C686.68728797 286.01519017 684.84398232 282.50759812 683 279 C673.43 279 663.86 279 654 279 Z " fill="#000000" transform="translate(0,0)"/>
<path d="M0 0 C15.04347826 0 15.04347826 0 20 4 C23.21107641 8.41523006 23.7716681 12.70403129 23 18 C21.69722387 21.63405974 20.69445647 23.47002006 17.625 25.8125 C11.47672654 28.5938618 7.20098783 28 0 28 C0 18.76 0 9.52 0 0 Z " fill="#000000" transform="translate(412,92)"/>
<path d="M0 0 C16.34375 0 16.34375 0 22.4375 5 C25.49104392 8.90853621 25.50501908 13.23037533 25 18 C23.12426465 22.58513086 20.21749804 24.53979281 16 27 C13 28 13 28 0 28 C0 18.76 0 9.52 0 0 Z " fill="#000000" transform="translate(503,92)"/>
<path d="M0 0 C2.44479116 2.44479116 3.14555863 4.58343824 4.3828125 7.8125 C5.04990234 9.54886719 5.04990234 9.54886719 5.73046875 11.3203125 C6.19066406 12.53460938 6.65085938 13.74890625 7.125 15 C7.59292969 16.21429688 8.06085938 17.42859375 8.54296875 18.6796875 C12 27.73045736 12 27.73045736 12 30 C4.41 30 -3.18 30 -11 30 C-7.48090819 19.93376063 -3.90099397 9.92509527 0 0 Z " fill="#000000" transform="translate(174,273)"/>
<path d="M0 0 C3.84265862 2.88199397 5.04165341 3.85411365 6.25 8.6875 C-2 8.6875 -10.25 8.6875 -18.75 8.6875 C-17.75 3.6875 -17.75 3.6875 -15.375 1.4375 C-10.48479461 -1.82263693 -5.40004708 -2.5772952 0 0 Z " fill="#000000" transform="translate(502.75,294.3125)"/>
<path d="M0 0 C4.57728766 2.31836647 7.38195548 5.46335816 8.9921875 10.3515625 C9.86131879 16.02066889 9.2522467 20.51768162 5.9921875 25.3515625 C1.03276079 29.8271427 -1.93355534 30.65666707 -8.46875 30.5625 C-11.976976 30.27104738 -14.14470787 29.39663724 -17.0078125 27.3515625 C-21.12804201 22.0063999 -22.46468304 18.09040291 -22.0078125 11.3515625 C-18.54915304 1.74417511 -9.89378378 -3.19526869 0 0 Z " fill="#000000" transform="translate(333.0078125,298.6484375)"/>
<path d="M0 0 C4.33258539 2.25032991 7.00854146 4.79769745 9.0625 9.31640625 C9.82893944 14.61827085 9.74205227 18.87889183 7.4375 23.75390625 C3.34374389 28.17085363 0.22218857 30.53884076 -5.875 30.81640625 C-10.97229231 30.59378354 -13.87159073 29.38658264 -17.9375 26.31640625 C-21.4057756 22.27008471 -22.07175589 17.52553465 -21.9375 12.31640625 C-20.26928897 6.4286026 -17.7764666 3.74400759 -12.9375 0.31640625 C-8.58499493 -1.13442877 -4.35636245 -1.53702304 0 0 Z " fill="#000000" transform="translate(418.9375,298.68359375)"/>
</svg>
